# xmcd
#
# Track frame offsets:
#	182
#	15385
#	32400
#	47480
#	68705
#	79525
#	93312
#	110850
#	125467
#	147755
#	165180
#	184602
#	201397
#	218572
#	235847
#	249787
#	269197
#	284985
#	298242
#	312935
#
# Disc length: 4447
#
# Revision: 2
# Processed by: cddbd v1.5.1PL0 Copyright (c) Steve Scherf et al.
# Submitted via: audiograbber 1.81.02
# Normalized: r1:DSETVAR2
#
DISCID=1f115d14
DTITLE=Various Artist - The Love Collection [CD1)
DYEAR=1900
DGENRE=Rock
TTITLE0=Real Thing - You To Me Are Everything
TTITLE1=The Whispers - It's A Love Thing
TTITLE2=Kelly Marie - Feels Like I'm In love
TTITLE3=Hi-Gloss - You'll Never Know
TTITLE4=The Kinks - All Day and All Of The Night
TTITLE5=Dollar - I Wanna Hold Your Hand
TTITLE6=Bonnie Tyler - Lost In France
TTITLE7=Long John Baldry - Let The Heartaches Begin
TTITLE8=Elkie Brooks - No More The Fool
TTITLE9=Gladys Knight - So Sad The Song
TTITLE10=Fat Larry's Band - Zoom
TTITLE11=Shalamar - Second Time Around
TTITLE12=Jim Croce - Operator (That's Not The Way It Feels)
TTITLE13=The Trammps - Hold Back The Night
TTITLE14=Moments - Dolly My Love
TTITLE15=Collage - Romeo, Where's Juilet
TTITLE16=Sally Oldfield - Mirrors
TTITLE17=Jimmy James - Red Red Wine
TTITLE18=JP.P Arnold - The First Cut Is The Deepest
TTITLE19=Gladys Knight and The Pips - The Way We Where/Try To Remember
EXTD=
EXTT0=
EXTT1=
EXTT2=
EXTT3=
EXTT4=
EXTT5=
EXTT6=
EXTT7=
EXTT8=
EXTT9=
EXTT10=
EXTT11=
EXTT12=
EXTT13=
EXTT14=
EXTT15=
EXTT16=
EXTT17=
EXTT18=
EXTT19=
PLAYORDER=
